<?xml version="1.0" encoding="UTF-8"?><svg id="Capa_2" xmlns="http://www.w3.org/2000/svg" viewBox="0 0 137.25 104.61"><defs><style>.cls-1{fill:#fff;}</style></defs><g id="Capa_1-2"><path class="cls-1" d="M43.58,19.39c0,10.97-9.62,18.94-21.78,18.94S0,30.36,0,19.39,9.62,0,21.8,0s21.78,7.97,21.78,19.39ZM.75,37.28V104.61H42.83V37.28c-7.51,5.71-15.03,7.36-21.04,7.36-7.07,0-13.54-1.65-21.05-7.36Zm96.11,54.08l-.81-3.04c1.93-.51,4.64-1.3,7.61-2.22l33.6-59.66H53.23v31.72c11.28-10.37,21.5-15.18,33.23-15.63l-35.77,62.07h83.87l2.49-30.76c-9.33,9.32-38.86,17.16-40.19,17.51Z"/></g></svg>