<?xml version="1.0" encoding="UTF-8"?><svg id="Capa_2" xmlns="http://www.w3.org/2000/svg" viewBox="0 0 392.16 107.61"><defs><style>.cls-1{fill:#5535b7;}</style></defs><g id="Capa_1-2"><path class="cls-1" d="M43.58,19.39c0,10.97-9.62,18.94-21.78,18.94S0,30.36,0,19.39,9.62,0,21.8,0s21.78,7.97,21.78,19.39ZM.75,37.28V104.61H42.83V37.28c-7.51,5.71-15.03,7.36-21.04,7.36-7.07,0-13.54-1.65-21.05-7.36Zm317.71,22.84v44.49h-42.08c0-2.34,.66-4.63,1.9-6.61l2.53-4.03-2.74-1.53c-.98,1.75-2.07,3.25-3.07,4.91-4.43,7.18-11.64,10.27-20.1,10.27-13.98,0-23.01-9.47-23.01-21.34,0-14.88,13.39-23.9,32.63-25.7l11.87-1.05c-1.05-7.66-7.22-12.17-16.84-12.17s-18.48,2.7-24.94,10.37c2.25-22.4,19.53-34.27,43.43-34.27s40.42,13.83,40.42,36.67Zm-42.08,7.22l-1.51,.15c-7.82,2.56-9.78,7.06-9.78,11.72s3.16,9.32,7.83,9.32c1.35,0,2.69-.45,3.45-1.05v-20.14Zm-179.53,24.02l-.81-3.04c1.93-.51,4.64-1.3,7.61-2.22l33.6-59.66H53.23v31.72c11.28-10.37,21.5-15.18,33.23-15.63l-35.77,62.07h83.87l2.49-30.76c-9.33,9.32-38.86,17.16-40.19,17.51ZM392.16,42.24v-15.79h-21.64V0h-6.27s-3.95,33.82-35.81,33.82v43.74c0,17.43,11.11,30.06,30.06,30.06,22.4,0,33.22-14.73,33.51-35.17-2.4,2.4-5.26,4.06-10.82,4.06-6.32,0-10.67-3.46-10.67-10.07v-24.2h21.64Zm-166.17,18.19h-46.3c1.2,11.72,10.7,22.26,25.88,22.26,8.57,0,13.52-3.62,17.75-9.03l2.16,.03c-2.26,18.44-14.07,33.94-38.43,33.94-28.7,0-44.63-17.59-44.63-40.88,0-25.1,18.64-43.29,43.58-43.29s40,15.48,40,36.98Zm-32.02-9.02c0-12.02-2.41-17.59-7.22-17.59-4.5,0-7.06,5.56-7.06,17.59v.9h14.28v-.9Z"/></g></svg>